<svg xmlns="http://www.w3.org/2000/svg" viewBox="0 0 351.86 313.29"><defs><style>.cls-1{fill:none;stroke:#000;stroke-miterlimit:10;stroke-width:2px;}</style></defs><g id="Warstwa_2" data-name="Warstwa 2"><g id="Warstwa_6" data-name="Warstwa 6"><path class="cls-1" d="M322.67,28.54h0c-37.34-37-98.14-36.68-135.12.65L175.22,41.65,163.66,30.2c-37.33-37-98.14-36.69-135.11.64h0C-8.43,68.18-8.14,129,29.19,166l11.56,11.45,59.64,59.06,76.13,75.41L311,176.11h0l12.34-12.45C360.3,126.33,360,65.52,322.67,28.54Z"/><path d="M101,95.39q3.72,0,3.72-1.8,0-.9.63-.9t.63,1.47a2.45,2.45,0,0,1-1.68,2.25,7.21,7.21,0,0,1-3,.78,15.53,15.53,0,0,1-2.13-.12A57.09,57.09,0,0,1,84.1,93.23a73.18,73.18,0,0,0-7.62,17.88,61.26,61.26,0,0,1-3.57,8.7,35.17,35.17,0,0,1-5,7.71,22.87,22.87,0,0,1-6.15,5,33.29,33.29,0,0,1-16.14,3.72,28.38,28.38,0,0,1-14.16-3.72,14.62,14.62,0,0,1-7.56-11.28,28.16,28.16,0,0,1-.12-3A20.8,20.8,0,0,1,25,112.43a9.7,9.7,0,0,1,4.41-5.64,4.54,4.54,0,0,1,2-.78q1.08,0,1,1a7,7,0,0,1-1.23,1q-1,.69-1.89,1.44a8.57,8.57,0,0,0-1.8,2.31,11.45,11.45,0,0,0-1.56,5.94q0,7.56,5.16,11.64a20,20,0,0,0,6.18,3.48A20.54,20.54,0,0,0,44,134h.3a27.41,27.41,0,0,0,20.4-9q5-5.46,13.8-24.66a67.29,67.29,0,0,1,3.84-7.74,64,64,0,0,0-19.08-3.36q-8.46,0-13.74,5.1-4.26,4.08-4.26,8.52,0,4.86,4.26,6.18a10.21,10.21,0,0,0,2.73.42,10.51,10.51,0,0,0,2.82-.45,7.35,7.35,0,0,0,3.06-1.86,11.69,11.69,0,0,0,2.22-2.79,3.67,3.67,0,0,0,.63-2.1v-.12q.48-.42.84-.27t.36.75a9,9,0,0,1-4.74,7,9.26,9.26,0,0,1-4.68,1.5,11.38,11.38,0,0,1-3.84-.6,9.27,9.27,0,0,1-6.24-6.66,11.74,11.74,0,0,1-.42-3.06,12.74,12.74,0,0,1,2.22-7q4-6.12,12.42-7.38a23.74,23.74,0,0,1,3.66-.3q1.74,0,4,.18a35.75,35.75,0,0,1,6.12,1.2q3.81,1,7.8,2.37t4.77,1.59q2.94-3.6,4.38-3.66a2.23,2.23,0,0,1,.81-.12q.51,0,.81.84t-.42,1.08a1.84,1.84,0,0,1-.78-.06q-.36-.24-1.47.75A15.77,15.77,0,0,0,85,92a86.12,86.12,0,0,0,9.9,2.61A37.52,37.52,0,0,0,101,95.39Z"/><path d="M107.26,109.61l-.3,1a77,77,0,0,1-4.8,12.84q-3.9,7.2-8.52,7.2a3.37,3.37,0,0,1-2.94-1.11,4.38,4.38,0,0,1-.87-2q-.09-.9-.09-1.56a13.15,13.15,0,0,1,.54-3.54q-4.44,8.1-8,8.1a4.11,4.11,0,0,1-2.4-.75,3.07,3.07,0,0,1-1.32-2,1.37,1.37,0,0,1-.18-.72,12.68,12.68,0,0,1,2.22-6.24q-1,0-.54-1l1.08-2.1q2.94-5.76,3.36-6.6a2.34,2.34,0,0,1,2.34-1.26h3.66q-2.16,1.56-4.35,6t-3.36,7a10.22,10.22,0,0,0-1.17,3.87,3.15,3.15,0,0,0,.45,1.92,1.42,1.42,0,0,0,1.17.57,2.81,2.81,0,0,0,1.74-1,17.1,17.1,0,0,0,1.86-2.13q.84-1.14,1.71-2.58t1.59-2.73q.72-1.29,1.56-3L93,115.19q1.74-3.48,1.92-4a2.21,2.21,0,0,1,2.28-1.26h3.66a5.75,5.75,0,0,1-.66.48,5.15,5.15,0,0,0-1.74,1.74,51.94,51.94,0,0,0-3.78,7.26q-2.4,6.12-2.4,7.86,0,2.16,1.62,2.22h.3q4.32,0,8.52-10.44a7.89,7.89,0,0,1-.84-3.3,9.39,9.39,0,0,1,.36-2.7q1-3.48,3.24-4.26a2,2,0,0,1,.78-.18Q107.26,108.59,107.26,109.61Z"/><path d="M120,109.55q4.38,0,4.38,5.52a13,13,0,0,1-1.32,5.4,21.36,21.36,0,0,1-5,7.08,2.89,2.89,0,0,0,2.82,1.5,4.12,4.12,0,0,0,3.06-1.62,16.45,16.45,0,0,0,2.58-3.27l1.14-2.07q.36-.66.93-1.89l.69-1.5a.5.5,0,0,1,.45-.3.47.47,0,0,1,.48.21.71.71,0,0,1,0,.66l-.36.84q-.36.84-.54,1.2l-.63,1.29q-.45.93-.78,1.47l-.9,1.44a14,14,0,0,1-1,1.44q-.45.54-1.11,1.2a6.71,6.71,0,0,1-1.26,1,5.53,5.53,0,0,1-2.82.9,4.86,4.86,0,0,1-3.84-1.56,8.81,8.81,0,0,1-5.1,2q-4.38,0-4.38-5.52a13,13,0,0,1,1.32-5.4,20.13,20.13,0,0,1,5.07-7.14Q117,109.55,120,109.55Zm.66,1.86q-1.62,0-3.84,2.16a19.85,19.85,0,0,0-4,5.88,17.23,17.23,0,0,0-2.1,7.08q0,2.76,2.1,2.76a5.41,5.41,0,0,0,3.36-1.62,5.06,5.06,0,0,1-1-2.94q.12-2.58,2.1-2.58a1.7,1.7,0,0,1,1.29.54,1.53,1.53,0,0,1,.51,1,3.83,3.83,0,0,1-.12.93,33.85,33.85,0,0,0,2.34-4.26,13.57,13.57,0,0,0,1.5-6Q122.86,111.41,120.64,111.41Zm.36-5.94a.52.52,0,0,1-.21-.09.32.32,0,0,1-.15-.3.69.69,0,0,1,.12-.39,15.6,15.6,0,0,1,1.71-1.38q1.59-1.2,3.45-2.49t2.7-1.92a2.76,2.76,0,0,1,1.65-.63,3.31,3.31,0,0,1,1.44.3q.63.3.63.75a1.79,1.79,0,0,1-.18.81q-.3.72-5.4,3T121,105.47Z"/><path d="M131.92,113a2.16,2.16,0,0,0,.18-1,2.8,2.8,0,0,0-.78-1.56l3.3-.06q1.38,0,1.62.51t-.36,1.59l-4.8,11.22q-1.5,3.54-3.72,7.92,2.34-.9,3.42-1.38a12.17,12.17,0,0,0,2.61-1.74A13.54,13.54,0,0,0,136,125.6q1.11-1.65,3.75-6.63.42-.84.75-.66a.54.54,0,0,1,.33.48,11.37,11.37,0,0,1-1,2.31q-1,2-2,3.75a21.92,21.92,0,0,1-2.64,3.54,13.6,13.6,0,0,1-3.6,2.88,39.61,39.61,0,0,1-5.28,2.28q-4.62,8.4-9.36,12.36a17.07,17.07,0,0,1-4.26,2.55,12.94,12.94,0,0,1-5.13,1,6.61,6.61,0,0,1-4.11-1.11,3.29,3.29,0,0,1-1.44-2.67,8.71,8.71,0,0,1,.9-3.54,11.2,11.2,0,0,1,5.64-4.92,44,44,0,0,1,8.1-2.67q5-1.23,6.48-1.65,1.5-2.58,1.77-3.15l4.35-9q-1,0-.54-1Zm-27.84,30.6a5.45,5.45,0,0,0-.66,2.4,2,2,0,0,0,.84,1.71,3.3,3.3,0,0,0,2,.63q3.48,0,7.5-3.6a37.47,37.47,0,0,0,8.22-9.84,116.85,116.85,0,0,0-12.42,3.72A10.45,10.45,0,0,0,104.08,143.57Zm33.3-36.36a2.79,2.79,0,0,1-1.86.72,1.9,1.9,0,0,1-1.56-.66,1.94,1.94,0,0,1-.54-1.14,7.35,7.35,0,0,1,.09-1.08,2.4,2.4,0,0,1,.93-1.32,2.79,2.79,0,0,1,1.86-.72,2,2,0,0,1,1.59.63,1.79,1.79,0,0,1,.57,1.11,6,6,0,0,1-.12,1.11A2.58,2.58,0,0,1,137.38,107.21Z"/><path d="M219,86.45l-2.52.54a95.55,95.55,0,0,0-7.38,19.32,59.93,59.93,0,0,1-3.48,9.09,48.89,48.89,0,0,1-5.58,9.21q-11.94,15.3-30.54,15.3-8.64,0-13.74-3.72a12.18,12.18,0,0,1-4.62-6.72,14.57,14.57,0,0,1-.42-3.84,15.93,15.93,0,0,1,1.23-5.55,14.73,14.73,0,0,1,4-5.7q2.76-2.49,4.38-2.61.6,0,.72.18t-.66.66a11.94,11.94,0,0,0-4.14,3.54,14.32,14.32,0,0,0-3.54,9.48,10,10,0,0,0,2.58,6.9,16.86,16.86,0,0,0,9.18,4.92,19.78,19.78,0,0,0,4,.6l2.85,0a18.35,18.35,0,0,0,3.87-.63,33.85,33.85,0,0,0,9.54-4.08,42,42,0,0,0,7.8-6.09,54.58,54.58,0,0,0,6-7.23,60,60,0,0,0,7.08-13.32,131.65,131.65,0,0,1,9-19.38,83.14,83.14,0,0,0-15.18,4.38,29.66,29.66,0,0,0-8.94,5.64,18.63,18.63,0,0,0-5.1,9.06,11,11,0,0,0-.36,2.64,5.93,5.93,0,0,0,1.38,4.08,4,4,0,0,0,3,1.56,9.38,9.38,0,0,0,3.42-.72,7.86,7.86,0,0,0,3.21-2.4,9.18,9.18,0,0,0,1.92-5.82q0-1.68-.48-2.1-.12-.18.12-.54.6-.9,1.14,0a7,7,0,0,1,.78,3.27,8.21,8.21,0,0,1-1.14,3.87,10.82,10.82,0,0,1-5.88,5.28,11.61,11.61,0,0,1-4.11.72,7.82,7.82,0,0,1-4.71-2,6.62,6.62,0,0,1-2.52-5.52,12.56,12.56,0,0,1,.24-2.34q3.42-15.42,34.2-20.64a14.17,14.17,0,0,1,1.95-2.82,6.27,6.27,0,0,1,2.4-2,5.43,5.43,0,0,1,1.65-.33q2,0,2,1.68A3.12,3.12,0,0,1,222.22,85,13.82,13.82,0,0,1,219,86.45Zm-1.5-1q4.08-.84,3.9-2.28a.75.75,0,0,0-.81-.72Q219.94,82.49,217.54,85.49Z"/><path d="M222.7,127.07q0,1.92,1.56,1.92,2.82,0,7.5-9.42.18-.36.33-.72a.81.81,0,0,1,.48-.48q.33-.12.45.15a1.22,1.22,0,0,1-.12.87q-4.8,11.16-9.72,11.16a3,3,0,0,1-2.58-1.44,5.12,5.12,0,0,1-1-2.85,10.75,10.75,0,0,1,.3-2.61q-3.48,5.76-6,6.54a3.65,3.65,0,0,1-1.41.3,5.11,5.11,0,0,1-1.35-.18q-2.94-.78-2.94-4.68a15.25,15.25,0,0,1,1.35-5.85,24.22,24.22,0,0,1,3.81-6.15,12,12,0,0,1,5.94-4,9.42,9.42,0,0,1,3-.42,8.47,8.47,0,0,1,3.81,1.08q4.08-7.68,7-14.22a6.08,6.08,0,0,1,1.65-2.55,2.66,2.66,0,0,1,1.5-.57h.84q.15,0,1.14.15a6.29,6.29,0,0,0,1.53.09q-1.38,1.26-7.32,12.24-7.56,14-9.12,18.72A9.23,9.23,0,0,0,222.7,127.07Zm2.94-15.78a3,3,0,0,0-2.19-.78q-1.41,0-3.93,2.1a27.75,27.75,0,0,0-6.66,8.28,12,12,0,0,0-1.74,5.34,3.84,3.84,0,0,0,.39,1.74,1.29,1.29,0,0,0,1.23.78q2,0,5-4.2A131.66,131.66,0,0,0,225.64,111.29Z"/><path d="M234.7,121.31a11.87,11.87,0,0,0-.84,4.56,4.32,4.32,0,0,0,.75,2.67,2.51,2.51,0,0,0,2.13,1q5.46,0,9.9-10.26.42-1,1-.84a.28.28,0,0,1,.24.3,25.2,25.2,0,0,1-1.35,3.15,25.32,25.32,0,0,1-2.73,4.71q-3.06,4.2-7.56,4.2a5.78,5.78,0,0,1-4.08-1.56A5.53,5.53,0,0,1,230.5,125a14.65,14.65,0,0,1,1.29-5.73,21.94,21.94,0,0,1,3.51-5.64,13.47,13.47,0,0,1,5.1-3.81,6.62,6.62,0,0,1,2.64-.6,4.14,4.14,0,0,1,2.34.72,2.4,2.4,0,0,1,1,1.86q0,3.6-4.32,6.9a12.86,12.86,0,0,1-3.72,1.83A12.59,12.59,0,0,1,234.7,121.31Zm10.08-9.6q0-1.2-1-1.2-1.68,0-5.1,4.14a30.85,30.85,0,0,0-3.6,5.64,9.48,9.48,0,0,0,3-.72,11.42,11.42,0,0,0,3.39-1.92Q244.78,114.83,244.78,111.71Z"/><path d="M262,119.18a25.19,25.19,0,0,0-2.37,5.7,15.12,15.12,0,0,0-.39,3.06q0,1.17.9,1.17,1.13,0,2.82-2.1a42.68,42.68,0,0,0,4.86-8q.23-.54.54-.6.48-.18.48.36a1.89,1.89,0,0,1-.18.72q-5.54,11.16-9.3,11.16a3.23,3.23,0,0,1-2.82-1.68,4.64,4.64,0,0,1-.54-2.4,14.09,14.09,0,0,1,.6-3.66q-4.82,7.74-8.28,7.74a2.76,2.76,0,0,1-1.74-.6q-1.8-1.26-1.8-4.32c0-3.92,1.69-7.9,5.1-11.94a13.24,13.24,0,0,1,7.08-4.38,8.38,8.38,0,0,1,2.16-.3,6.4,6.4,0,0,1,4.68,1.92,1.21,1.21,0,0,1,.36,1.26.84.84,0,0,1-1,.48,2.78,2.78,0,0,0-2.88-2.16q-2.58,0-6.36,4.08a32.29,32.29,0,0,0-4,5.64q-2.34,3.9-2.34,6.24t1.5,2.34q3.6,0,9.42-11a13.09,13.09,0,0,1,1.92-3,2.6,2.6,0,0,1,2-.81,10.35,10.35,0,0,1,1.23.18,3.79,3.79,0,0,0,1.47.06A23,23,0,0,0,262,119.18Z"/><path d="M270.58,120.62c-.33.94-.6,1.84-.82,2.7a10.37,10.37,0,0,0-.33,2.58,4.87,4.87,0,0,0,.61,2.4,2,2,0,0,0,1.91,1.11q2.16,0,4.2-2.91a61.59,61.59,0,0,0,4.32-7.41q.48-.84.9-.66a.46.46,0,0,1,.12.63l-.75,1.68q-.57,1.29-.84,1.8l-1,1.8a12.75,12.75,0,0,1-1.2,1.92c-.34.42-.8,1-1.37,1.62a7.84,7.84,0,0,1-1.66,1.47,7.51,7.51,0,0,1-4,1.32,4.53,4.53,0,0,1-2.88-.81,3.18,3.18,0,0,1-1.23-1.74,7.59,7.59,0,0,1-.21-1.65q0-.72.06-1.86a18.45,18.45,0,0,1,.75-3.72q.57-1.8.63-2A82.55,82.55,0,0,1,271.81,108a80.85,80.85,0,0,1,4.31-8.85,25.58,25.58,0,0,1,2.79-4,5.74,5.74,0,0,1,4-2.16q1.38,0,1.86,2a5.62,5.62,0,0,1,.06.9,13,13,0,0,1-1.44,5.16q-5.16,11.46-12.29,18Zm7.07-11.43a58.2,58.2,0,0,0,4.41-8.07,14.83,14.83,0,0,0,1.41-4.53c0-.8-.14-1.2-.41-1.2s-1.17.79-2.29,2.37a60.34,60.34,0,0,0-4.53,8.52q-2.85,6.15-4.64,10.77A47.44,47.44,0,0,0,277.65,109.19Z"/><path d="M298.65,110.87q-7.38,13-7.38,16.92,0,1.56,1.14,1.56,3.06,0,8.22-10.38.36-.84.72-.66a.54.54,0,0,1,.36.48,1.52,1.52,0,0,1-.24.72,42.38,42.38,0,0,1-5.37,8.85q-2.19,2.43-4.38,2.43a3.77,3.77,0,0,1-3.33-1.68,3.41,3.41,0,0,1-.6-2.13,11.29,11.29,0,0,1,.6-3.27,32.39,32.39,0,0,1,3.3-6.24,3.64,3.64,0,0,0,.66-1.71q0-.63-1-.63t-3.9,2.7q-4.32,4-8.34,11.88a1.59,1.59,0,0,1-.81.75,7.83,7.83,0,0,1-1.77.21,4.49,4.49,0,0,0-1.74.3q1-1.92,3.78-7.86,5-10.5,6.6-12a2.68,2.68,0,0,1,2-.72,10.07,10.07,0,0,1,1.23.18,3.79,3.79,0,0,0,1.47.06q-2.22,1.2-7.26,11.28a48.69,48.69,0,0,1,5.13-5.55,29.39,29.39,0,0,1,5.55-3.84q3.24-1.77,4.74-1.77A1.76,1.76,0,0,1,298.65,110.87Z"/><path d="M292.29,149.51a6.56,6.56,0,0,1-4.08-1.11,3.29,3.29,0,0,1-1.44-2.67,8.71,8.71,0,0,1,.9-3.54,11.2,11.2,0,0,1,5.64-4.92,44,44,0,0,1,8.1-2.67q5-1.23,6.48-1.65,2.16-3.78,5.16-13.5a47,47,0,0,1-5.82,8.58,6.67,6.67,0,0,1-4.74,2.46q-3.24,0-3.78-2.7a2,2,0,0,1-.12-1.26q.12-.84.15-1.2a4.27,4.27,0,0,1,.39-1.17q.36-.81.48-1.17a24.3,24.3,0,0,1,1.14-2.16q-1,0-.54-1l1.08-2.1q2-3.9,3.36-6.6a2.34,2.34,0,0,1,2.34-1.26h3.66a7.26,7.26,0,0,1-.6.48,5,5,0,0,0-1.62,1.68q-2.16,3.72-5.4,10.62a11.36,11.36,0,0,0-1.32,4.14,3,3,0,0,0,.45,1.86,1.52,1.52,0,0,0,1.23.54q1.14,0,3.18-2.4,4.26-5,9.42-15.66a2.41,2.41,0,0,1,2.34-1.26h3.24a7.85,7.85,0,0,0-2.46,2.73,35.56,35.56,0,0,0-1.95,4.47q-1.05,2.82-2.64,7.5t-2.43,7a15.61,15.61,0,0,0,8.64-5.94,62.83,62.83,0,0,0,3.78-6.6q.42-.84.75-.66a.54.54,0,0,1,.33.48,11.37,11.37,0,0,1-1,2.31q-1,2-2,3.72a22.67,22.67,0,0,1-2.64,3.51,13.09,13.09,0,0,1-3.6,2.85,42.92,42.92,0,0,1-5.28,2.25q-4.62,8.4-9.3,12.36A14.64,14.64,0,0,1,292.29,149.51Zm-3.48-5.94a5.49,5.49,0,0,0-.66,2.43,2,2,0,0,0,.84,1.71,3.52,3.52,0,0,0,2.1.6q3.48,0,7.44-3.57a50.9,50.9,0,0,0,7-7.65l1.32-2.22a109.67,109.67,0,0,0-12.48,3.72A10.75,10.75,0,0,0,288.81,143.57Z"/><path d="M130.78,200.39a19.22,19.22,0,0,1-12.36,4.5q-7.74,0-9.54-4.32a6.19,6.19,0,0,1-.42-2.37,4.57,4.57,0,0,1,1.38-2.91,7.57,7.57,0,0,1,6-2.46,15.38,15.38,0,0,1,5.19.93,84.73,84.73,0,0,1,9.27,4.47,40.08,40.08,0,0,0,6-7.68,103.4,103.4,0,0,0,5.19-9.27q2.19-4.47,5.34-9.75a56.57,56.57,0,0,1,6.27-8.76,27.37,27.37,0,0,0-14.28-4,31.81,31.81,0,0,0-6.36.66q-9.3,2-14.16,8.1-3,3.72-3,7.08a5.71,5.71,0,0,0,4.38,5.94,10.61,10.61,0,0,0,2.7.42,10.4,10.4,0,0,0,2.55-.36,6.4,6.4,0,0,0,2.79-1.68q2.64-2.64,2.82-4.92.06-.54.69-.39t.51.93a8.7,8.7,0,0,1-4.62,6.66,10.32,10.32,0,0,1-4.92,1.32l-3.12-.54a9,9,0,0,1-6-5.82,9.27,9.27,0,0,1-.6-3.24,10.76,10.76,0,0,1,2.46-6.54q5.28-7.08,18.72-9.06a38.6,38.6,0,0,1,5.22-.36,33.81,33.81,0,0,1,15.9,4,25.74,25.74,0,0,1,4.32-4.11,6.14,6.14,0,0,1,3.18-1.41q.66,0,.78.27a.35.35,0,0,1,0,.42.53.53,0,0,1-.39.15q-1,0-2.64,2.16a34.25,34.25,0,0,0-2.64,4,28.17,28.17,0,0,1,9.78,10.92,25.43,25.43,0,0,1,2.7,11.64q0,7.8-3.72,12.42a16.62,16.62,0,0,1-7.44,5.34,30.6,30.6,0,0,1-10.32,1.86Q138,204.59,130.78,200.39Zm-2-1q-7-3.36-8.88-4a10.82,10.82,0,0,0-3.63-.66,3.42,3.42,0,0,0-2.82,1.32,4,4,0,0,0-1,2.37,4.44,4.44,0,0,0,.48,2Q114.1,203,118,203A18,18,0,0,0,128.74,199.43Zm3.48-.12a27.32,27.32,0,0,0,14.22,3.6q9.48,0,15.12-5.4,4.5-4.38,4.5-12.12A25.27,25.27,0,0,0,163.9,175a26.28,26.28,0,0,0-8-10.32q-1.74,2.7-6.69,10.89t-8.37,13.29a63.28,63.28,0,0,1-5.4,7.23A42.7,42.7,0,0,1,132.22,199.31Z"/><path d="M162.76,221.15a4.91,4.91,0,0,1-3.93-1.56,4.85,4.85,0,0,1-1.35-3.18,5.59,5.59,0,0,1,1-3.12,10.5,10.5,0,0,1,2.46-2.61,23,23,0,0,1,2.85-1.86,31.64,31.64,0,0,1,3.87-1.68q2.49-.93,3.87-1.38t4.32-1.35l3.9-1.2a19.62,19.62,0,0,0,1.08-5.28q0-3.12-1.74-3.12a2,2,0,0,0-.48.06q-2.88,1.5-3.42,1.08a.6.6,0,0,1-.24-.6q.06-.36.54-.48a12.3,12.3,0,0,0,6.72-5.28,4.15,4.15,0,0,0,.78-2.22,3,3,0,0,0-.84-2,2.4,2.4,0,0,0-1.8-1q-3,0-5,3.42-1.68,2.82-3.18,6-.36.84-.78.57t.06-1.23q3.18-6.24,3.54-6.84,2.7-4.92,7.38-4.92a3.62,3.62,0,0,1,3.18,1.56,4.27,4.27,0,0,1,.6,2.49,7.69,7.69,0,0,1-1.59,4,13.3,13.3,0,0,1-4.29,4h.12q3.9,0,4,3.9a14.52,14.52,0,0,1-.66,4.38q4.56-.9,9.24-10.74.24-.54.6-.6t.42.36a12,12,0,0,1-1.56,3.48,42.39,42.39,0,0,1-2.94,4.68,9.78,9.78,0,0,1-6.12,4.32,29.75,29.75,0,0,1-6.93,11,25.25,25.25,0,0,1-10.95,6.45A10.3,10.3,0,0,1,162.76,221.15Zm-2.82-5.94a7.73,7.73,0,0,0-.36,2.34,1.88,1.88,0,0,0,.9,1.74,3.3,3.3,0,0,0,1.68.54,12,12,0,0,0,6.33-2.19,28.37,28.37,0,0,0,6.33-5.55,24.36,24.36,0,0,0,4.38-7.38q-1.26.42-4,1.2T171,207.17a33.15,33.15,0,0,0-6.66,2.76A9.33,9.33,0,0,0,159.94,215.21Z"/><path d="M195.34,201.23a3.69,3.69,0,0,0,2.4-1.14q2.22-2.22,5.64-9.06.42-.9.84-.54a.54.54,0,0,1,.12.39,4.83,4.83,0,0,1-.48,1.32l-.87,1.89q-.39.84-1.5,2.73a19.21,19.21,0,0,1-2,2.91q-2.46,2.82-4.65,2.82a3.63,3.63,0,0,1-3.15-1.32,4.88,4.88,0,0,1-1-2.94,9.47,9.47,0,0,1,.78-3.54l3.84-9.78a3.12,3.12,0,0,0,.12-1,2.9,2.9,0,0,0-.72-1.56l3.3-.06q1.38,0,1.62.51t-.36,1.59l-4.8,11.22a9.41,9.41,0,0,0-1,3.78Q193.48,201.23,195.34,201.23Zm5.88-22a2.79,2.79,0,0,1-1.86.72,2,2,0,0,1-1.62-.72,2.2,2.2,0,0,1-.48-1.74,2.91,2.91,0,0,1,1-1.74,2.79,2.79,0,0,1,1.86-.72,2.09,2.09,0,0,1,1.65.72,2,2,0,0,1,.45,1.74A2.91,2.91,0,0,1,201.22,179.21Z"/><path d="M206.08,193.31a11.87,11.87,0,0,0-.84,4.56,4.32,4.32,0,0,0,.75,2.67,2.51,2.51,0,0,0,2.13,1q5.46,0,9.9-10.26.42-1,1-.84a.28.28,0,0,1,.24.3,36.86,36.86,0,0,1-4.08,7.86q-3.06,4.2-7.56,4.2a5.78,5.78,0,0,1-4.08-1.56,5.53,5.53,0,0,1-1.68-4.26,14.65,14.65,0,0,1,1.29-5.73,21.94,21.94,0,0,1,3.51-5.64,13.47,13.47,0,0,1,5.1-3.81,6.62,6.62,0,0,1,2.64-.6,4.14,4.14,0,0,1,2.34.72,2.4,2.4,0,0,1,1,1.86q0,3.6-4.32,6.9a12.86,12.86,0,0,1-3.72,1.83A12.59,12.59,0,0,1,206.08,193.31Zm10.08-9.6q0-1.2-1-1.2-1.68,0-5.1,4.14a30.85,30.85,0,0,0-3.6,5.64,9.48,9.48,0,0,0,3-.72,11.42,11.42,0,0,0,3.39-1.92Q216.16,186.83,216.16,183.71Z"/><path d="M236.32,182.87q-7.38,13-7.38,16.92c0,1,.37,1.56,1.14,1.56q3.06,0,8.22-10.38.36-.84.81-.6c.3.16.3.54,0,1.14a43.27,43.27,0,0,1-5.37,8.85c-1.47,1.62-2.92,2.43-4.38,2.43a3.75,3.75,0,0,1-3.33-1.68,3.41,3.41,0,0,1-.6-2.13,11.29,11.29,0,0,1,.6-3.27,31.81,31.81,0,0,1,3.3-6.24,3.76,3.76,0,0,0,.66-1.71q0-.63-1-.63c-.69,0-2,.9-3.9,2.7q-4.32,4-8.34,11.88a1.59,1.59,0,0,1-.81.75,7.92,7.92,0,0,1-1.77.21,4.49,4.49,0,0,0-1.74.3q1-1.92,3.78-7.86,5-10.5,6.6-12a2.68,2.68,0,0,1,2-.72,10.35,10.35,0,0,1,1.23.18,3.79,3.79,0,0,0,1.47.06q-2.24,1.2-7.26,11.28a48.69,48.69,0,0,1,5.13-5.55,29.07,29.07,0,0,1,5.55-3.84q3.24-1.77,4.74-1.77A1.8,1.8,0,0,1,236.32,182.87Zm-5.7-5.1a.47.47,0,0,1-.21-.09.32.32,0,0,1-.15-.3.62.62,0,0,1,.12-.39,13.55,13.55,0,0,1,1.71-1.38q1.57-1.2,3.45-2.49t2.7-1.92a2.74,2.74,0,0,1,1.65-.63,3.31,3.31,0,0,1,1.44.3q.63.3.63.75a1.79,1.79,0,0,1-.18.81q-.32.72-5.4,3C233,177,231.06,177.77,230.62,177.77Z"/></g></g></svg>