<svg xmlns="http://www.w3.org/2000/svg" xmlns:xlink="http://www.w3.org/1999/xlink" viewBox="0 0 451.2 149.36"><defs><style>.cls-1,.cls-4{fill:none;}.cls-2{fill:#fff;}.cls-3{clip-path:url(#clip-path);}.cls-4{stroke:#fff;stroke-miterlimit:10;stroke-width:2px;}</style><clipPath id="clip-path" transform="translate(0 -15.14)"><path class="cls-1" d="M438.55,105.72A139.19,139.19,0,0,0,450.2,90.14c12.74-19.37,6.51-47.91-12.41-62.48-5.67-4.37-13.28-7.17-23.46-7.42l-36.05,8.28S341.23-7.56,316,1.44,264.72,67.13,278.18,89s70.53,82.65,70.53,82.65l5.85-7.25,47.9-33.61-8.61,1.36c27.65-17.71,12.24-8.17,39.89-25.88A27.47,27.47,0,0,0,438.55,105.72Z"/></clipPath></defs><g id="Warstwa_2" data-name="Warstwa 2"><g id="Warstwa_6" data-name="Warstwa 6"><path class="cls-2" d="M77.22,70.92q3.72,0,3.72-1.8,0-.9.63-.9t.63,1.47a2.45,2.45,0,0,1-1.68,2.25,7.21,7.21,0,0,1-3,.78,15.53,15.53,0,0,1-2.13-.12A57.09,57.09,0,0,1,60.3,68.76a73.18,73.18,0,0,0-7.62,17.88,61.26,61.26,0,0,1-3.57,8.7,35.17,35.17,0,0,1-5,7.71A22.87,22.87,0,0,1,38,108a33.29,33.29,0,0,1-16.14,3.72A28.38,28.38,0,0,1,7.68,108,14.62,14.62,0,0,1,.12,96.72a28.16,28.16,0,0,1-.12-3A20.8,20.8,0,0,1,1.17,88a9.7,9.7,0,0,1,4.41-5.64,4.54,4.54,0,0,1,2-.78q1.08,0,1,1a7,7,0,0,1-1.23,1Q6.3,84.24,5.4,85A8.57,8.57,0,0,0,3.6,87.3,11.45,11.45,0,0,0,2,93.24q0,7.56,5.16,11.64a20,20,0,0,0,6.18,3.48,20.54,20.54,0,0,0,6.84,1.2h.3a27.41,27.41,0,0,0,20.4-9q5-5.46,13.8-24.66a67.29,67.29,0,0,1,3.84-7.74A64,64,0,0,0,39.48,64.8q-8.46,0-13.74,5.1Q21.48,74,21.48,78.42q0,4.86,4.26,6.18a10.21,10.21,0,0,0,2.73.42,10.51,10.51,0,0,0,2.82-.45,7.35,7.35,0,0,0,3.06-1.86,11.69,11.69,0,0,0,2.22-2.79,3.67,3.67,0,0,0,.63-2.1V77.7q.48-.42.84-.27t.36.75a9,9,0,0,1-4.74,7A9.26,9.26,0,0,1,29,86.7a11.38,11.38,0,0,1-3.84-.6,9.27,9.27,0,0,1-6.24-6.66,11.74,11.74,0,0,1-.42-3.06,12.74,12.74,0,0,1,2.22-7q4-6.12,12.42-7.38a23.74,23.74,0,0,1,3.66-.3q1.74,0,4,.18A35.75,35.75,0,0,1,47,63.06q3.81,1,7.8,2.37T59.52,67q2.94-3.6,4.38-3.66a2.23,2.23,0,0,1,.81-.12q.51,0,.81.84t-.42,1.08a1.84,1.84,0,0,1-.78-.06q-.36-.24-1.47.75A15.77,15.77,0,0,0,61.2,67.5a86.12,86.12,0,0,0,9.9,2.61A37.52,37.52,0,0,0,77.22,70.92Z" transform="translate(0 -15.14)"/><path class="cls-2" d="M83.46,85.14l-.3,1A77,77,0,0,1,78.36,99q-3.9,7.2-8.52,7.2a3.37,3.37,0,0,1-2.94-1.11,4.38,4.38,0,0,1-.87-2q-.09-.9-.09-1.56A13.15,13.15,0,0,1,66.48,98q-4.44,8.1-8,8.1a4.11,4.11,0,0,1-2.4-.75,3.07,3.07,0,0,1-1.32-2,1.37,1.37,0,0,1-.18-.72,12.68,12.68,0,0,1,2.22-6.24q-1,0-.54-1l1.08-2.1q2.94-5.76,3.36-6.6a2.34,2.34,0,0,1,2.34-1.26h3.66q-2.16,1.56-4.35,6t-3.36,7a10.22,10.22,0,0,0-1.17,3.87,3.15,3.15,0,0,0,.45,1.92,1.42,1.42,0,0,0,1.17.57,2.81,2.81,0,0,0,1.74-1,17.1,17.1,0,0,0,1.86-2.13q.84-1.14,1.71-2.58t1.59-2.73q.72-1.29,1.56-3l1.32-2.67q1.74-3.48,1.92-4a2.21,2.21,0,0,1,2.28-1.26H77.1a5.75,5.75,0,0,1-.66.48,5.15,5.15,0,0,0-1.74,1.74,51.94,51.94,0,0,0-3.78,7.26q-2.4,6.12-2.4,7.86,0,2.16,1.62,2.22h.3q4.32,0,8.52-10.44a7.89,7.89,0,0,1-.84-3.3,9.39,9.39,0,0,1,.36-2.7q1-3.48,3.24-4.26a2,2,0,0,1,.78-.18Q83.46,84.12,83.46,85.14Z" transform="translate(0 -15.14)"/><path class="cls-2" d="M96.18,85.08q4.38,0,4.38,5.52A13,13,0,0,1,99.24,96a21.36,21.36,0,0,1-5,7.08,2.89,2.89,0,0,0,2.82,1.5,4.12,4.12,0,0,0,3.06-1.62,16.45,16.45,0,0,0,2.58-3.27l1.14-2.07q.36-.66.93-1.89l.69-1.5a.5.5,0,0,1,.45-.3.47.47,0,0,1,.48.21.71.71,0,0,1,0,.66l-.36.84q-.36.84-.54,1.2l-.63,1.29q-.45.93-.78,1.47l-.9,1.44a14,14,0,0,1-1,1.44q-.45.54-1.11,1.2a6.71,6.71,0,0,1-1.26,1,5.53,5.53,0,0,1-2.82.9A4.86,4.86,0,0,1,93.06,104a8.81,8.81,0,0,1-5.1,2q-4.38,0-4.38-5.52a13,13,0,0,1,1.32-5.4A20.13,20.13,0,0,1,90,88Q93.24,85.08,96.18,85.08Zm.66,1.86q-1.62,0-3.84,2.16A19.85,19.85,0,0,0,89,95a17.23,17.23,0,0,0-2.1,7.08q0,2.76,2.1,2.76a5.41,5.41,0,0,0,3.36-1.62,5.06,5.06,0,0,1-1-2.94q.12-2.58,2.1-2.58a1.7,1.7,0,0,1,1.29.54,1.53,1.53,0,0,1,.51,1,3.83,3.83,0,0,1-.12.93,33.85,33.85,0,0,0,2.34-4.26,13.57,13.57,0,0,0,1.5-6Q99.06,86.94,96.84,86.94ZM97.2,81a.52.52,0,0,1-.21-.09.32.32,0,0,1-.15-.3.69.69,0,0,1,.12-.39,15.6,15.6,0,0,1,1.71-1.38q1.59-1.2,3.45-2.49t2.7-1.92a2.76,2.76,0,0,1,1.65-.63,3.31,3.31,0,0,1,1.44.3q.63.3.63.75a1.79,1.79,0,0,1-.18.81q-.3.72-5.4,3T97.2,81Z" transform="translate(0 -15.14)"/><path class="cls-2" d="M108.12,88.5a2.16,2.16,0,0,0,.18-1,2.8,2.8,0,0,0-.78-1.56l3.3-.06q1.38,0,1.62.51T112.08,88l-4.8,11.22q-1.5,3.54-3.72,7.92,2.34-.9,3.42-1.38a12.17,12.17,0,0,0,2.61-1.74,13.54,13.54,0,0,0,2.64-2.91q1.11-1.65,3.75-6.63.42-.84.75-.66a.54.54,0,0,1,.33.48,11.37,11.37,0,0,1-1,2.31q-1,2-2,3.75a21.92,21.92,0,0,1-2.64,3.54,13.6,13.6,0,0,1-3.6,2.88,39.61,39.61,0,0,1-5.28,2.28q-4.62,8.4-9.36,12.36A17.07,17.07,0,0,1,88.92,124,12.94,12.94,0,0,1,83.79,125a6.61,6.61,0,0,1-4.11-1.11,3.29,3.29,0,0,1-1.44-2.67,8.71,8.71,0,0,1,.9-3.54,11.2,11.2,0,0,1,5.64-4.92,44,44,0,0,1,8.1-2.67q5-1.23,6.48-1.65,1.5-2.58,1.77-3.15l4.35-9q-1,0-.54-1ZM80.28,119.1a5.45,5.45,0,0,0-.66,2.4,2,2,0,0,0,.84,1.71,3.3,3.3,0,0,0,2,.63q3.48,0,7.5-3.6a37.47,37.47,0,0,0,8.22-9.84,116.85,116.85,0,0,0-12.42,3.72A10.45,10.45,0,0,0,80.28,119.1Zm33.3-36.36a2.79,2.79,0,0,1-1.86.72,1.9,1.9,0,0,1-1.56-.66,1.94,1.94,0,0,1-.54-1.14,7.35,7.35,0,0,1,.09-1.08,2.4,2.4,0,0,1,.93-1.32,2.79,2.79,0,0,1,1.86-.72,2,2,0,0,1,1.59.63,1.79,1.79,0,0,1,.57,1.11,6,6,0,0,1-.12,1.11A2.58,2.58,0,0,1,113.58,82.74Z" transform="translate(0 -15.14)"/><path class="cls-2" d="M195.24,62l-2.52.54a95.55,95.55,0,0,0-7.38,19.32,59.93,59.93,0,0,1-3.48,9.09,48.89,48.89,0,0,1-5.58,9.21q-11.94,15.3-30.54,15.3-8.64,0-13.74-3.72a12.18,12.18,0,0,1-4.62-6.72,14.57,14.57,0,0,1-.42-3.84,15.93,15.93,0,0,1,1.23-5.55,14.73,14.73,0,0,1,4-5.7q2.76-2.49,4.38-2.61.6,0,.72.18t-.66.66a11.94,11.94,0,0,0-4.14,3.54,14.32,14.32,0,0,0-3.54,9.48,10,10,0,0,0,2.58,6.9A16.86,16.86,0,0,0,140.7,113a19.78,19.78,0,0,0,4,.6l2.85,0a18.35,18.35,0,0,0,3.87-.63,33.85,33.85,0,0,0,9.54-4.08,42,42,0,0,0,7.8-6.09,54.58,54.58,0,0,0,6-7.23,60,60,0,0,0,7.08-13.32,131.65,131.65,0,0,1,9-19.38,83.14,83.14,0,0,0-15.18,4.38,29.66,29.66,0,0,0-8.94,5.64,18.63,18.63,0,0,0-5.1,9.06,11,11,0,0,0-.36,2.64,5.93,5.93,0,0,0,1.38,4.08,4,4,0,0,0,3,1.56,9.38,9.38,0,0,0,3.42-.72,7.86,7.86,0,0,0,3.21-2.4,9.18,9.18,0,0,0,1.92-5.82q0-1.68-.48-2.1-.12-.18.12-.54.6-.9,1.14,0a7,7,0,0,1,.78,3.27,8.21,8.21,0,0,1-1.14,3.87A10.82,10.82,0,0,1,168.72,91a11.61,11.61,0,0,1-4.11.72,7.82,7.82,0,0,1-4.71-2,6.62,6.62,0,0,1-2.52-5.52,12.56,12.56,0,0,1,.24-2.34q3.42-15.42,34.2-20.64a14.17,14.17,0,0,1,2-2.82,6.27,6.27,0,0,1,2.4-2,5.43,5.43,0,0,1,1.65-.33q2,0,2,1.68a3.12,3.12,0,0,1-1.44,2.76A13.82,13.82,0,0,1,195.24,62Zm-1.5-1q4.08-.84,3.9-2.28a.75.75,0,0,0-.81-.72Q196.14,58,193.74,61Z" transform="translate(0 -15.14)"/><path class="cls-2" d="M198.9,102.6q0,1.92,1.56,1.92,2.82,0,7.5-9.42.18-.36.33-.72a.81.81,0,0,1,.48-.48q.33-.12.45.15a1.22,1.22,0,0,1-.12.87q-4.8,11.16-9.72,11.16a3,3,0,0,1-2.58-1.44,5.12,5.12,0,0,1-1-2.85,10.75,10.75,0,0,1,.3-2.61q-3.48,5.76-6,6.54a3.65,3.65,0,0,1-1.41.3,5.11,5.11,0,0,1-1.35-.18q-2.94-.78-2.94-4.68a15.25,15.25,0,0,1,1.35-5.85,24.22,24.22,0,0,1,3.81-6.15,12,12,0,0,1,5.94-4,9.42,9.42,0,0,1,3-.42,8.47,8.47,0,0,1,3.81,1.08q4.08-7.68,7-14.22a6.08,6.08,0,0,1,1.65-2.55,2.66,2.66,0,0,1,1.5-.57h.84q.15,0,1.14.15a6.29,6.29,0,0,0,1.53.09Q214.56,70,208.62,81q-7.56,14-9.12,18.72A9.23,9.23,0,0,0,198.9,102.6Zm2.94-15.78a3,3,0,0,0-2.19-.78q-1.41,0-3.93,2.1a27.75,27.75,0,0,0-6.66,8.28,12,12,0,0,0-1.74,5.34,3.84,3.84,0,0,0,.39,1.74,1.29,1.29,0,0,0,1.23.78q2,0,5-4.2A131.66,131.66,0,0,0,201.84,86.82Z" transform="translate(0 -15.14)"/><path class="cls-2" d="M210.9,96.84a11.87,11.87,0,0,0-.84,4.56,4.32,4.32,0,0,0,.75,2.67,2.51,2.51,0,0,0,2.13,1q5.46,0,9.9-10.26.42-1,1-.84a.28.28,0,0,1,.24.3,25.2,25.2,0,0,1-1.35,3.15,25.32,25.32,0,0,1-2.73,4.71q-3.06,4.2-7.56,4.2a5.78,5.78,0,0,1-4.08-1.56,5.53,5.53,0,0,1-1.68-4.26A14.65,14.65,0,0,1,208,94.77a21.94,21.94,0,0,1,3.51-5.64,13.47,13.47,0,0,1,5.1-3.81,6.62,6.62,0,0,1,2.64-.6,4.14,4.14,0,0,1,2.34.72,2.4,2.4,0,0,1,1,1.86q0,3.6-4.32,6.9A12.86,12.86,0,0,1,214.56,96,12.59,12.59,0,0,1,210.9,96.84ZM221,87.24q0-1.2-1-1.2-1.68,0-5.1,4.14a30.85,30.85,0,0,0-3.6,5.64,9.48,9.48,0,0,0,3-.72,11.42,11.42,0,0,0,3.39-1.92Q221,90.36,221,87.24Z" transform="translate(0 -15.14)"/><path class="cls-2" d="M238.19,94.71a25,25,0,0,0-2.36,5.7,15.12,15.12,0,0,0-.39,3.06c0,.78.29,1.17.9,1.17s1.69-.7,2.81-2.1a43.2,43.2,0,0,0,4.87-8q.22-.54.54-.6c.31-.12.48,0,.48.36a1.75,1.75,0,0,1-.19.72q-5.52,11.16-9.29,11.16a3.27,3.27,0,0,1-2.83-1.68,4.74,4.74,0,0,1-.54-2.4,14.16,14.16,0,0,1,.61-3.66q-4.81,7.74-8.28,7.74a2.79,2.79,0,0,1-1.75-.6q-1.78-1.26-1.79-4.32,0-5.88,5.1-11.94A13.22,13.22,0,0,1,233.15,85a8.5,8.5,0,0,1,2.16-.3A6.41,6.41,0,0,1,240,86.58a1.17,1.17,0,0,1,.35,1.26.82.82,0,0,1-1,.48,2.77,2.77,0,0,0-2.88-2.16q-2.6,0-6.36,4.08a31.77,31.77,0,0,0-4,5.64c-1.56,2.6-2.35,4.68-2.35,6.24s.5,2.34,1.5,2.34q3.61,0,9.42-11a13.75,13.75,0,0,1,1.93-3,2.6,2.6,0,0,1,2-.81,10.35,10.35,0,0,1,1.23.18,3.79,3.79,0,0,0,1.47.06A23.28,23.28,0,0,0,238.19,94.71Z" transform="translate(0 -15.14)"/><path class="cls-2" d="M246.77,96.15q-.48,1.41-.81,2.7a10.37,10.37,0,0,0-.33,2.58,5,5,0,0,0,.6,2.4,2,2,0,0,0,1.92,1.11q2.16,0,4.2-2.91a61.59,61.59,0,0,0,4.32-7.41q.48-.84.9-.66a.47.47,0,0,1,.12.63l-.75,1.68q-.57,1.29-.84,1.8l-1,1.8a12.75,12.75,0,0,1-1.2,1.92q-.51.63-1.38,1.62A7.93,7.93,0,0,1,247,106.2a4.53,4.53,0,0,1-2.88-.81,3.18,3.18,0,0,1-1.23-1.74,7.59,7.59,0,0,1-.21-1.65q0-.72.06-1.86a17.78,17.78,0,0,1,.75-3.72q.57-1.8.63-2A83.86,83.86,0,0,1,248,83.52a82.43,82.43,0,0,1,4.32-8.85,25.58,25.58,0,0,1,2.79-4,5.72,5.72,0,0,1,4-2.16q1.38,0,1.86,2a5.62,5.62,0,0,1,.06.9,13,13,0,0,1-1.44,5.16q-5.16,11.46-12.3,18Q247.25,94.74,246.77,96.15Zm7.08-11.43a58.2,58.2,0,0,0,4.41-8.07,14.83,14.83,0,0,0,1.41-4.53q0-1.2-.42-1.2-.6,0-2.28,2.37a60.34,60.34,0,0,0-4.53,8.52q-2.85,6.15-4.65,10.77A47.45,47.45,0,0,0,253.85,84.72Z" transform="translate(0 -15.14)"/><path class="cls-2" d="M274.85,86.4q-7.38,13-7.38,16.92,0,1.56,1.14,1.56,3.06,0,8.22-10.38.36-.84.72-.66a.54.54,0,0,1,.36.48,1.52,1.52,0,0,1-.24.72,42.38,42.38,0,0,1-5.37,8.85q-2.19,2.43-4.38,2.43a3.77,3.77,0,0,1-3.33-1.68,3.41,3.41,0,0,1-.6-2.13,11.29,11.29,0,0,1,.6-3.27,32.39,32.39,0,0,1,3.3-6.24,3.64,3.64,0,0,0,.66-1.71q0-.63-1-.63t-3.9,2.7q-4.32,4-8.34,11.88a1.59,1.59,0,0,1-.81.75,7.83,7.83,0,0,1-1.77.21,4.49,4.49,0,0,0-1.74.3q1-1.92,3.78-7.86,5-10.5,6.6-12a2.68,2.68,0,0,1,2-.72,10.07,10.07,0,0,1,1.23.18,3.79,3.79,0,0,0,1.47.06q-2.22,1.2-7.26,11.28a48.69,48.69,0,0,1,5.13-5.55,29.39,29.39,0,0,1,5.55-3.84q3.24-1.77,4.74-1.77A1.76,1.76,0,0,1,274.85,86.4Z" transform="translate(0 -15.14)"/><path class="cls-2" d="M268.49,125a6.56,6.56,0,0,1-4.08-1.11,3.29,3.29,0,0,1-1.44-2.67,8.71,8.71,0,0,1,.9-3.54,11.2,11.2,0,0,1,5.64-4.92,44,44,0,0,1,8.1-2.67q5-1.23,6.48-1.65,2.16-3.78,5.16-13.5a47,47,0,0,1-5.82,8.58,6.67,6.67,0,0,1-4.74,2.46q-3.24,0-3.78-2.7a2,2,0,0,1-.12-1.26q.12-.84.15-1.2a4.27,4.27,0,0,1,.39-1.17q.36-.81.48-1.17A24.3,24.3,0,0,1,277,96.36q-1,0-.54-1l1.08-2.1q2-3.9,3.36-6.6a2.34,2.34,0,0,1,2.34-1.26h3.66a7.26,7.26,0,0,1-.6.48,5,5,0,0,0-1.62,1.68q-2.16,3.72-5.4,10.62a11.36,11.36,0,0,0-1.32,4.14,3,3,0,0,0,.45,1.86,1.52,1.52,0,0,0,1.23.54q1.14,0,3.18-2.4,4.26-5,9.42-15.66a2.41,2.41,0,0,1,2.34-1.26h3.24a7.85,7.85,0,0,0-2.46,2.73,35.56,35.56,0,0,0-1.95,4.47q-1,2.82-2.64,7.5t-2.43,7a15.61,15.61,0,0,0,8.64-5.94,62.83,62.83,0,0,0,3.78-6.6q.42-.84.75-.66a.54.54,0,0,1,.33.48,11.37,11.37,0,0,1-1,2.31q-1,2-2,3.72a22.67,22.67,0,0,1-2.64,3.51,13.09,13.09,0,0,1-3.6,2.85,42.92,42.92,0,0,1-5.28,2.25q-4.62,8.4-9.3,12.36A14.64,14.64,0,0,1,268.49,125ZM265,119.1a5.49,5.49,0,0,0-.66,2.43,2,2,0,0,0,.84,1.71,3.52,3.52,0,0,0,2.1.6q3.48,0,7.44-3.57a50.9,50.9,0,0,0,7-7.65L283,110.4a109.67,109.67,0,0,0-12.48,3.72A10.75,10.75,0,0,0,265,119.1Z" transform="translate(0 -15.14)"/><g class="cls-3"><path class="cls-2" d="M335.39,103.92c-5.88,2.86-8.76,3-12.43,2.7-5.14-.36-7.6-1.68-8.8-4.56a6.84,6.84,0,0,1-.42-2.49,4.31,4.31,0,0,1,1.38-2.79,7.49,7.49,0,0,1,5.95-2.51,9.1,9.1,0,0,1,4.86,1.59,89.28,89.28,0,0,0,9,5.9,40.08,40.08,0,0,0,6-7.68,103.4,103.4,0,0,0,5.19-9.27q2.19-4.47,5.34-9.75a56.57,56.57,0,0,1,6.27-8.76,27.37,27.37,0,0,0-14.28-4,31.81,31.81,0,0,0-6.36.66q-9.3,2-14.16,8.1-3,3.72-3,7.08a5.71,5.71,0,0,0,4.38,5.94,10.61,10.61,0,0,0,2.7.42,10.4,10.4,0,0,0,2.55-.36,6.4,6.4,0,0,0,2.79-1.68q2.64-2.64,2.82-4.92.06-.54.69-.39t.51.93a8.7,8.7,0,0,1-4.62,6.66A10.32,10.32,0,0,1,326.81,86l-3.12-.54a9,9,0,0,1-6-5.82,9.27,9.27,0,0,1-.6-3.24,10.76,10.76,0,0,1,2.46-6.54q5.28-7.08,18.72-9.06a38.6,38.6,0,0,1,5.22-.36,33.81,33.81,0,0,1,15.9,4,25.74,25.74,0,0,1,4.32-4.11,6.14,6.14,0,0,1,3.18-1.41q.66,0,.78.27a.35.35,0,0,1,0,.42.53.53,0,0,1-.39.15q-1,0-2.64,2.16a34.25,34.25,0,0,0-2.64,4,28.17,28.17,0,0,1,9.78,10.92,25.43,25.43,0,0,1,2.7,11.64q0,7.8-3.72,12.42a16.62,16.62,0,0,1-7.44,5.34A30.6,30.6,0,0,1,353,108.12Q342.65,108.12,335.39,103.92Zm-2-.91a49.78,49.78,0,0,1-8.59-5.52,6.29,6.29,0,0,0-3.31-1.25,3.42,3.42,0,0,0-2.82,1.32,4,4,0,0,0-1.05,2.37,4.44,4.44,0,0,0,.48,2c.85,1.72,2,2.22,4.53,2.74S329.09,104.79,333.41,103Zm3.42-.17a27.32,27.32,0,0,0,14.22,3.6q9.48,0,15.12-5.4,4.5-4.38,4.5-12.12a25.27,25.27,0,0,0-2.16-10.38,26.28,26.28,0,0,0-8-10.32q-1.74,2.7-6.69,10.89T345.47,92.4a63.28,63.28,0,0,1-5.4,7.23A42.7,42.7,0,0,1,336.83,102.84Z" transform="translate(0 -15.14)"/><path class="cls-2" d="M367.37,124.68a4.91,4.91,0,0,1-3.93-1.56,4.85,4.85,0,0,1-1.35-3.18,5.59,5.59,0,0,1,1-3.12,10.5,10.5,0,0,1,2.46-2.61,23,23,0,0,1,2.85-1.86,31.64,31.64,0,0,1,3.87-1.68q2.49-.93,3.87-1.38t4.32-1.35l3.9-1.2a19.62,19.62,0,0,0,1.08-5.28q0-3.12-1.74-3.12a2,2,0,0,0-.48.06q-2.88,1.5-3.42,1.08a.6.6,0,0,1-.24-.6q.06-.36.54-.48a12.3,12.3,0,0,0,6.72-5.28,4.15,4.15,0,0,0,.78-2.22,3,3,0,0,0-.84-2,2.4,2.4,0,0,0-1.8-1q-3,0-5,3.42-1.68,2.82-3.18,6-.36.84-.78.57t.06-1.23q3.18-6.24,3.54-6.84Q382.31,85,387,85a3.62,3.62,0,0,1,3.18,1.56,4.27,4.27,0,0,1,.6,2.49,7.69,7.69,0,0,1-1.59,4,13.3,13.3,0,0,1-4.29,4H385q3.9,0,4,3.9a14.52,14.52,0,0,1-.66,4.38q4.56-.9,9.24-10.74.24-.54.6-.6t.42.36a12,12,0,0,1-1.56,3.48,42.39,42.39,0,0,1-2.94,4.68A9.78,9.78,0,0,1,388,106.8a29.75,29.75,0,0,1-6.93,11,25.25,25.25,0,0,1-10.95,6.45A10.3,10.3,0,0,1,367.37,124.68Zm-2.82-5.94a7.73,7.73,0,0,0-.36,2.34,1.88,1.88,0,0,0,.9,1.74,3.3,3.3,0,0,0,1.68.54,12,12,0,0,0,6.33-2.19,28.37,28.37,0,0,0,6.33-5.55,24.36,24.36,0,0,0,4.38-7.38q-1.26.42-4,1.2t-4.26,1.26a33.15,33.15,0,0,0-6.66,2.76A9.33,9.33,0,0,0,364.55,118.74Z" transform="translate(0 -15.14)"/><path class="cls-2" d="M400,104.76a3.69,3.69,0,0,0,2.4-1.14q2.22-2.22,5.64-9.06.42-.9.84-.54a.54.54,0,0,1,.12.39,4.83,4.83,0,0,1-.48,1.32l-.87,1.89q-.39.84-1.5,2.73a19.21,19.21,0,0,1-2,2.91q-2.46,2.82-4.65,2.82a3.63,3.63,0,0,1-3.15-1.32,4.88,4.88,0,0,1-1-2.94,9.47,9.47,0,0,1,.78-3.54L400,88.5a3.12,3.12,0,0,0,.12-1,2.9,2.9,0,0,0-.72-1.56l3.3-.06q1.38,0,1.62.51T403.91,88l-4.8,11.22a9.41,9.41,0,0,0-1,3.78Q398.09,104.76,400,104.76Zm5.88-22a2.79,2.79,0,0,1-1.86.72,2,2,0,0,1-1.62-.72,2.2,2.2,0,0,1-.48-1.74,2.91,2.91,0,0,1,1-1.74,2.79,2.79,0,0,1,1.86-.72,2.09,2.09,0,0,1,1.65.72,2,2,0,0,1,.45,1.74A2.91,2.91,0,0,1,405.83,82.74Z" transform="translate(0 -15.14)"/><path class="cls-2" d="M410.69,96.84a11.87,11.87,0,0,0-.84,4.56,4.32,4.32,0,0,0,.75,2.67,2.51,2.51,0,0,0,2.13,1q5.46,0,9.9-10.26.42-1,1-.84a.28.28,0,0,1,.24.3,25.2,25.2,0,0,1-1.35,3.15,25.32,25.32,0,0,1-2.73,4.71q-3.06,4.2-7.56,4.2a5.78,5.78,0,0,1-4.08-1.56,5.53,5.53,0,0,1-1.68-4.26,14.65,14.65,0,0,1,1.29-5.73,21.94,21.94,0,0,1,3.51-5.64,13.47,13.47,0,0,1,5.1-3.81,6.62,6.62,0,0,1,2.64-.6,4.14,4.14,0,0,1,2.34.72,2.4,2.4,0,0,1,1,1.86q0,3.6-4.32,6.9A12.86,12.86,0,0,1,414.35,96,12.59,12.59,0,0,1,410.69,96.84Zm10.08-9.6q0-1.2-1-1.2-1.68,0-5.1,4.14a30.85,30.85,0,0,0-3.6,5.64,9.48,9.48,0,0,0,3-.72,11.42,11.42,0,0,0,3.39-1.92Q420.77,90.36,420.77,87.24Z" transform="translate(0 -15.14)"/><path class="cls-2" d="M440.93,86.4q-7.38,13-7.38,16.92,0,1.56,1.14,1.56c2,0,5.91-2.92,9.35-9.85.51-.75.41-1.13.7-1a1,1,0,0,1,.41,1.44c-2.13,4.28-5.31,6.75-6.77,8.37s-2.92,2.43-4.38,2.43a3.77,3.77,0,0,1-3.33-1.68,3.41,3.41,0,0,1-.6-2.13,11.29,11.29,0,0,1,.6-3.27A32.39,32.39,0,0,1,434,93a3.64,3.64,0,0,0,.66-1.71q0-.63-1-.63t-3.9,2.7q-4.32,4-8.34,11.88a1.59,1.59,0,0,1-.81.75,7.83,7.83,0,0,1-1.77.21,4.49,4.49,0,0,0-1.74.3q1-1.92,3.78-7.86,5-10.5,6.6-12a2.68,2.68,0,0,1,2-.72,10.07,10.07,0,0,1,1.23.18,3.79,3.79,0,0,0,1.47.06q-2.22,1.2-7.26,11.28A48.69,48.69,0,0,1,430,91.89a29.39,29.39,0,0,1,5.55-3.84q3.24-1.77,4.74-1.77A1.76,1.76,0,0,1,440.93,86.4Zm-5.7-5.1a.52.52,0,0,1-.21-.09.32.32,0,0,1-.15-.3.69.69,0,0,1,.12-.39,15.6,15.6,0,0,1,1.71-1.38q1.59-1.2,3.45-2.49t2.7-1.92a2.76,2.76,0,0,1,1.65-.63,3.31,3.31,0,0,1,1.44.3q.63.3.63.75a1.79,1.79,0,0,1-.18.81q-.3.72-5.4,3T435.23,81.3Z" transform="translate(0 -15.14)"/><path class="cls-4" d="M443.09,50.29h0a43.84,43.84,0,0,0-60.51-12.61l-6.71,4.4-4.08-6.23a43.85,43.85,0,0,0-60.52-12.6h0a43.84,43.84,0,0,0-12.6,60.52L302.75,90l21,32.12,26.87,41,73.12-47.91h0l6.71-4.39A43.84,43.84,0,0,0,443.09,50.29Z" transform="translate(0 -15.14)"/></g></g></g></svg>